<?xml version="1.0" encoding="UTF-8"?>
<!-- Generator: Adobe Illustrator 22.1.0, SVG Export Plug-In . SVG Version: 6.00 Build 0)  -->
<svg version="1.1" id="Layer_1" xmlns="http://www.w3.org/2000/svg" xmlns:xlink="http://www.w3.org/1999/xlink" x="0px" y="0px" viewBox="0 0 115 30" style="enable-background:new 0 0 115 30;" xml:space="preserve">
<style type="text/css">
	.st0{fill:#7A4EE5;}
</style>
<g>
	<g>
		<g>
			<g>
				<path class="st0" d="M85.7,9l0.2,0v12.2l-0.1,0c-0.1,0-0.1,0-0.2,0c-0.2,0-0.4-0.1-0.4-0.2c-2.1-2.4-4.3-4.7-6.4-7.1l-0.7-0.8      c-0.4-0.4-0.8-0.9-1.2-1.3v8.4c0,0.1,0,0.2,0,0.3c0,0.4-0.3,0.7-0.7,0.7h-0.6V9.1l0.1,0c0.3-0.1,0.6,0.1,0.7,0.2      c2.5,2.7,4.9,5.4,7.4,8.1l0.9,1V10c0-0.3,0-0.7,0.3-0.9C85,9,85.4,9,85.7,9z"/>
				<path class="st0" d="M56.5,9l0.1,0v12.2h-0.2c-0.1,0-0.1,0-0.2,0c-0.1,0-0.3,0-0.4,0c-0.3-0.1-0.5-0.3-0.5-0.6      c0-0.1,0-0.3,0-0.4l0-8l-4.8,6.1l-4.8-6.1v8c0,0.1,0,0.2,0,0.3c0,0.4-0.3,0.7-0.7,0.7h-0.6V9.1l0.1,0c0.3-0.1,0.5,0.1,0.6,0.2      c1.6,2,3.1,4,4.7,6l0.7,0.9l1.8-2.4c1.2-1.5,2.4-3,3.5-4.6C56,9,56.2,8.9,56.5,9z"/>
				<path class="st0" d="M114.8,9.9v11.4h-0.6c-0.5,0-0.7-0.3-0.7-0.7c0-0.7,0-1.3,0-2V16h-7.6v5.3h-0.5c-0.1,0-0.1,0-0.2,0      c-0.3,0-0.5-0.2-0.6-0.6c0-0.1,0-0.2,0-0.4V9h0.4c0.1,0,0.3,0,0.4,0c0.2,0,0.5,0.2,0.6,0.7c0,0.2,0,0.4,0,0.6v4.4h7.7V9h0.4      c0.1,0,0.3,0,0.4,0c0.3,0,0.5,0.3,0.6,0.6C114.8,9.7,114.8,9.8,114.8,9.9z"/>
				<path class="st0" d="M40.5,17.9c0,1.5-0.7,2.6-2,3.2c-0.9,0.4-1.8,0.5-2.6,0.5c-0.2,0-0.5,0-0.7,0c-1.4-0.1-2.8-0.5-4-1.4      c0,0-0.1-0.1-0.1-0.1L31,20l0.1-0.2c0-0.1,0.1-0.1,0.1-0.2c0.3-0.5,0.6-0.6,1.1-0.3l0.3,0.2c0.4,0.2,0.8,0.4,1.3,0.5      c1.3,0.4,2.5,0.4,3.6,0.1c1.2-0.4,1.8-1.5,1.5-2.7c-0.2-0.7-0.8-1.1-1.2-1.2c-0.8-0.3-1.7-0.5-2.5-0.7l-0.7-0.2      c-0.7-0.2-1.4-0.3-2.1-0.7c-0.9-0.5-1.5-1.3-1.6-2.3c-0.1-1.1,0.3-2.3,1.1-2.9c0.7-0.6,1.5-0.9,2.5-1c1.7-0.2,3.4,0.1,4.9,1.1      c0,0,0.1,0,0.1,0.1l0.1,0.1l0,0.2c-0.2,0.4-0.4,0.6-0.6,0.7c-0.2,0.1-0.5,0-0.9-0.2c-1.3-0.6-2.5-0.8-3.7-0.6      c-0.9,0.2-1.5,0.6-1.8,1.2c-0.3,0.6-0.4,1.1-0.2,1.6c0.2,0.4,0.5,0.8,1.1,1c0.7,0.3,1.4,0.4,2.1,0.6l0.2,0      c0.2,0.1,0.4,0.1,0.7,0.1c0.7,0.1,1.5,0.3,2.2,0.6C39.9,15.6,40.5,16.6,40.5,17.9z"/>
				<path class="st0" d="M100.5,18.8l0.3,0.1l-0.1,0.2c-0.4,0.6-0.9,1.1-1.5,1.6c-0.9,0.6-2.1,1-3.3,1c-0.6,0-1.1-0.1-1.7-0.2      c-1.2-0.3-2.9-1.2-4-3.4c-0.8-1.6-0.9-3.4-0.3-5c0.6-1.6,1.8-2.9,3.4-3.7c2-0.9,5-0.8,6.9,1.2c0.1,0.1,0.3,0.3,0.4,0.4l0.3,0.4      l-0.1,0.1c-0.7,0.5-1,0.5-1.6-0.1c-1.6-1.5-3.9-1.8-5.7-0.7c-1.2,0.8-2.1,1.9-2.4,3.3c-0.3,1.4-0.1,2.8,0.7,4      c0.8,1.3,2,2.1,3.4,2.3c1.6,0.2,2.9-0.2,3.9-1.2l0.1-0.2c0.4-0.4,0.6-0.4,1.1-0.2C100.4,18.7,100.5,18.7,100.5,18.8z"/>
				<path class="st0" d="M70.9,9l0.2,0v2.4c0,1.7,0,3.5,0,5.2c0,1.4-0.4,2.5-1.3,3.4c-0.7,0.7-1.5,1.2-2.5,1.4      c-0.5,0.1-0.9,0.1-1.3,0.1c-0.8,0-1.6-0.2-2.3-0.5c-1.5-0.7-2.4-2-2.7-3.8c0-0.4-0.1-0.7-0.1-1c0-1.7,0-3.4,0-5V9h0.4      c0.1,0,0.3,0,0.4,0c0.4,0,0.6,0.3,0.6,0.6c0,0.1,0,0.2,0,0.3v1.7c0,1.5,0,3,0,4.6c0,0.6,0.1,1.1,0.2,1.5      c0.4,1.4,1.3,2.2,2.8,2.6c1.1,0.2,2.2,0,3.1-0.6c0.9-0.7,1.4-1.6,1.4-2.7c0-1,0-2,0-3v-1.1c0-0.6,0-1.2,0-1.8v-1      c0-0.3,0-0.6,0.3-0.8C70.2,9,70.4,9,70.9,9z"/>
			</g>
		</g>
	</g>
	<g>
		<g>
			<g>
				<path class="st0" d="M13.1,18.9c-0.2,0-0.4,0-0.5-0.1l-2.5-1.4c-0.3-0.2-0.5-0.5-0.5-0.9l0-2.8c0-0.4,0.2-0.7,0.5-0.9l2.4-1.4      c0.2-0.1,0.3-0.1,0.5-0.1c0.2,0,0.4,0,0.5,0.1c0.3,0.2,0.5,0.5,0.5,0.9c0,0.4-0.2,0.7-0.5,0.9l-1.3,0.8      c-0.4,0.2-0.7,0.7-0.7,1.2s0.3,0.9,0.7,1.2l1.3,0.7c0.3,0.2,0.5,0.5,0.5,0.9c0,0.4-0.2,0.7-0.5,0.9      C13.5,18.8,13.3,18.9,13.1,18.9C13.1,18.9,13.1,18.9,13.1,18.9z"/>
			</g>
		</g>
		<g>
			<path class="st0" d="M15.5,16.5L14,15.6c-0.5-0.3-0.5-1,0-1.3l1.4-0.8c0.5-0.3,1.1,0.1,1.1,0.6l0,1.6     C16.6,16.4,16,16.7,15.5,16.5z"/>
		</g>
	</g>
	<g>
		<path class="st0" d="M12.9,29.1c-0.6,0-1.2-0.2-1.7-0.5l-9.3-5.3c-1-0.6-1.7-1.7-1.7-2.9V9.7c0-1.2,0.7-2.3,1.7-2.9l9.3-5.3    c1-0.6,2.4-0.6,3.4,0l8.7,5c0.6,0.3,0.8,1.1,0.5,1.7c-0.3,0.6-1.1,0.8-1.7,0.5l-8.7-5c-0.3-0.2-0.6-0.2-0.9,0L3.2,8.9    C2.9,9,2.7,9.3,2.7,9.7v10.7c0,0.3,0.2,0.6,0.5,0.8l9.3,5.3c0.3,0.2,0.6,0.2,0.9,0l8.7-5c0.6-0.3,1.4-0.1,1.7,0.5    c0.3,0.6,0.1,1.4-0.5,1.7l-8.7,5C14,28.9,13.5,29.1,12.9,29.1z"/>
	</g>
</g>
</svg>